# xmcd
#
# Track frame offsets: 
#        182
#        12907
#        22657
#        39607
#        50970
#        63382
#        74295
#        92157
#        103207
#        116357
#
# Disc length: 1801 seconds
#
# Revision: 2
# Processed by: cddbd v1.4PL0 Copyright (c) Steve Scherf et al.
# Submitted via: ExactAudioCopy v0.90b4
#
DISCID=8307070a
DTITLE=Aretha Franklin - Aretha: Lady Soul
DYEAR=1968
DGENRE=Soul
TTITLE0=Chain of Fools
TTITLE1=Money Won't Change You
TTITLE2=People Get Ready
TTITLE3=Niki Hoeky
TTITLE4=(You Make Me Feel Like) A Natural Woman
TTITLE5=Since You've Been Gone (Sweet Sweet Baby)
TTITLE6=Good to Me As I Am to You
TTITLE7=Come Back Baby
TTITLE8=Groovin'
TTITLE9=Ain't No Way
EXTD=
EXTT0=
EXTT1=
EXTT2=
EXTT3=
EXTT4=
EXTT5=
EXTT6=
EXTT7=
EXTT8=
EXTT9=
PLAYORDER=
